<svg xmlns="http://www.w3.org/2000/svg" viewBox="0 0 480 480"><defs><style>.cls-1{opacity:0.91;}.cls-2{fill:#fff;}</style></defs><title>switch_camera</title><g id="Layer_2" data-name="Layer 2"><g id="Capa_1" data-name="Capa 1"><rect class="cls-1" width="480" height="480" rx="25.11" ry="25.11"/><path class="cls-2" d="M409.58,134.86V121.29a6.78,6.78,0,0,0-6.78-6.78H362.1a6.78,6.78,0,0,0-6.78,6.78v13.57H338.91l-17.37-30.39a34,34,0,0,0-29.45-17.09H187.91a34,34,0,0,0-29.45,17.09l-17.37,30.39h-2.84V114.51a6.79,6.79,0,0,0-6.78-6.79H77.2a6.78,6.78,0,0,0-6.78,6.79v20.35A34,34,0,0,0,36.5,168.77V358.71a34,34,0,0,0,33.92,33.91H409.58a34,34,0,0,0,33.92-33.91V168.77A34,34,0,0,0,409.58,134.86Zm-40.7-6.79H396v6.79H368.88ZM84,121.29h40.7v13.57H84Zm346,237.42a20.35,20.35,0,0,1-20.35,20.35H70.42a20.35,20.35,0,0,1-20.35-20.35V168.77a20.36,20.36,0,0,1,20.35-20.35H145a6.75,6.75,0,0,0,5.89-3.39l19.32-33.8a20.41,20.41,0,0,1,17.67-10.29H292.09a20.44,20.44,0,0,1,17.64,10.26L329.08,145a6.75,6.75,0,0,0,5.89,3.39h74.61a20.36,20.36,0,0,1,20.35,20.35Z"/><path class="cls-2" d="M331.18,277.74h0a6.78,6.78,0,0,0-8.76,3.91,88.18,88.18,0,0,1-169.9-21.23L169.05,277a6.79,6.79,0,1,0,9.76-9.43l-.17-.16L149.86,238.6a6.78,6.78,0,0,0-9.59,0l-28.81,28.78a6.78,6.78,0,0,0,9.59,9.59l17.63-17.64a101.75,101.75,0,0,0,196.37,27.18A6.78,6.78,0,0,0,331.18,277.74Z"/><path class="cls-2" d="M359.12,223.21l-.17.17L341.32,241a101.75,101.75,0,0,0-196.52-26.8,6.78,6.78,0,1,0,12.69,4.8A88.18,88.18,0,0,1,327.54,240L311,223.38a6.79,6.79,0,1,0-9.76,9.43l.17.16,28.78,28.78a6.78,6.78,0,0,0,9.59,0L368.54,233a6.78,6.78,0,1,0-9.42-9.76Z"/></g></g></svg>