<svg xmlns="http://www.w3.org/2000/svg" viewBox="0 0 72 19.2"><defs><style>.cls-1{fill:#fff;}</style></defs><title>menu</title><g id="Layer_2" data-name="Layer 2"><g id="Layer_1-2" data-name="Layer 1"><path class="cls-1" d="M9.6,0a9.6,9.6,0,1,0,9.6,9.6A9.61,9.61,0,0,0,9.6,0Zm0,16.8a7.2,7.2,0,1,1,7.2-7.2A7.21,7.21,0,0,1,9.6,16.8Z"/><path class="cls-1" d="M62.4,0A9.6,9.6,0,1,0,72,9.6,9.61,9.61,0,0,0,62.4,0Zm0,16.8a7.2,7.2,0,1,1,7.2-7.2A7.21,7.21,0,0,1,62.4,16.8Z"/><path class="cls-1" d="M36,0a9.6,9.6,0,1,0,9.6,9.6A9.61,9.61,0,0,0,36,0Zm0,16.8a7.2,7.2,0,1,1,7.2-7.2A7.21,7.21,0,0,1,36,16.8Z"/></g></g></svg>