<svg xmlns="http://www.w3.org/2000/svg" viewBox="0 0 480 480"><defs><style>.cls-1{opacity:0.91;}.cls-2{fill:#fff;}</style></defs><title>switch_camera_1</title><g id="Layer_2" data-name="Layer 2"><g id="Capa_1" data-name="Capa 1"><rect class="cls-1" width="480" height="480" rx="25.11" ry="25.11"/><path class="cls-2" d="M382.29,151.78V140.4a5.7,5.7,0,0,0-5.69-5.7H342.45a5.7,5.7,0,0,0-5.69,5.7v11.38H323l-14.58-25.5a28.49,28.49,0,0,0-24.7-14.34H196.29a28.49,28.49,0,0,0-24.7,14.34L157,151.78h-2.39V134.7a5.69,5.69,0,0,0-5.69-5.69H103.4a5.69,5.69,0,0,0-5.69,5.69v17.08a28.5,28.5,0,0,0-28.46,28.46V339.6a28.5,28.5,0,0,0,28.46,28.46H382.29a28.5,28.5,0,0,0,28.46-28.46V180.24A28.5,28.5,0,0,0,382.29,151.78Zm-34.15-5.69h22.77v5.69H348.14Zm-239-5.69h34.15v11.38H109.09ZM399.37,339.6a17.08,17.08,0,0,1-17.08,17.08H97.71A17.08,17.08,0,0,1,80.63,339.6V180.24a17.08,17.08,0,0,1,17.08-17.08h62.61a5.69,5.69,0,0,0,4.94-2.84L181.47,132a17.13,17.13,0,0,1,14.82-8.63h87.42a17.11,17.11,0,0,1,14.79,8.61l16.24,28.39a5.69,5.69,0,0,0,4.94,2.84h62.61a17.08,17.08,0,0,1,17.08,17.08Z"/><path class="cls-2" d="M316.5,271.66h0a5.7,5.7,0,0,0-7.35,3.28,74,74,0,0,1-142.56-17.81L180.47,271a5.69,5.69,0,1,0,8.19-7.91l-.14-.14-24.15-24.15a5.7,5.7,0,0,0-8.05,0L132.14,263a5.69,5.69,0,0,0,8.05,8l14.8-14.8A85.37,85.37,0,0,0,319.75,279,5.69,5.69,0,0,0,316.5,271.66Z"/><path class="cls-2" d="M340,225.92l-.14.14L325,240.85a85.37,85.37,0,0,0-164.89-22.48,5.69,5.69,0,1,0,10.65,4A74,74,0,0,1,313.45,240l-13.89-13.92a5.69,5.69,0,0,0-8.19,7.9,1.85,1.85,0,0,0,.14.14l24.15,24.15a5.68,5.68,0,0,0,8,0l24.15-24.15a5.69,5.69,0,1,0-7.91-8.18Z"/></g></g></svg>